{
	"asset":{
		"generator":"Khronos glTF Blender I/O v4.0.44",
		"version":"2.0"
	},
	"extensionsUsed":[
		"KHR_materials_unlit"
	],
	"scene":0,
	"scenes":[
		{
			"name":"Scene",
			"nodes":[
				6,
				7
			]
		}
	],
	"nodes":[
		{
			"mesh":0,
			"name":"Object_4"
		},
		{
			"children":[
				0
			],
			"name":"Clouds_1",
			"rotation":[
				0.1908702701330185,
				0.2025245875120163,
				0.0603143647313118,
				0.9586002826690674
			]
		},
		{
			"mesh":1,
			"name":"Object_6"
		},
		{
			"children":[
				2
			],
			"name":"Planet_2",
			"rotation":[
				0.1908702701330185,
				0.2025245875120163,
				0.0603143647313118,
				0.9586002826690674
			]
		},
		{
			"children":[
				1,
				3
			],
			"name":"GLTF_SceneRootNode",
			"rotation":[
				0.70710688829422,
				0,
				0,
				0.7071066498756409
			]
		},
		{
			"children":[
				4
			],
			"name":"root"
		},
		{
			"children":[
				5
			],
			"name":"Sketchfab_model",
			"rotation":[
				-0.695625364780426,
				-0.022898241877555847,
				0.02219405211508274,
				0.7176967263221741
			]
		},
		{
			"camera":0,
			"name":"Camera.001",
			"rotation":[
				-0.05171573907136917,
				0.7052130699157715,
				0.05171573907136917,
				0.7052130699157715
			],
			"translation":[
				5.952702522277832,
				0.8036060929298401,
				0
			]
		}
	],
	"cameras":[
		{
			"name":"Camera.001",
			"perspective":{
				"aspectRatio":1.7777777777777777,
				"yfov":0.39959648408210363,
				"zfar":1000,
				"znear":0.10000000149011612
			},
			"type":"perspective"
		}
	],
	"materials":[
		{
			"doubleSided":true,
			"extensions":{
				"KHR_materials_unlit":{}
			},
			"name":"Clouds",
			"pbrMetallicRoughness":{
				"baseColorTexture":{
					"index":0
				},
				"metallicFactor":0,
				"roughnessFactor":0.9
			}
		},
		{
			"extensions":{
				"KHR_materials_unlit":{}
			},
			"name":"Planet",
			"pbrMetallicRoughness":{
				"baseColorTexture":{
					"index":1
				},
				"metallicFactor":0,
				"roughnessFactor":0.9
			}
		}
	],
	"meshes":[
		{
			"name":"Object_0",
			"primitives":[
				{
					"attributes":{
						"POSITION":0,
						"NORMAL":1,
						"TEXCOORD_0":2
					},
					"indices":3,
					"material":0
				}
			]
		},
		{
			"name":"Object_1",
			"primitives":[
				{
					"attributes":{
						"POSITION":4,
						"NORMAL":5,
						"TEXCOORD_0":6
					},
					"indices":7,
					"material":1
				}
			]
		}
	],
	"textures":[
		{
			"sampler":0,
			"source":0
		},
		{
			"sampler":0,
			"source":1
		}
	],
	"images":[
		{
			"mimeType":"image/png",
			"name":"Clouds_baseColor",
			"uri":"Clouds_baseColor.png"
		},
		{
			"mimeType":"image/png",
			"name":"Planet_baseColor",
			"uri":"Planet_baseColor.png"
		}
	],
	"accessors":[
		{
			"bufferView":0,
			"componentType":5126,
			"count":26576,
			"max":[
				0.8758764863014221,
				0.854473352432251,
				0.8729100227355957
			],
			"min":[
				-0.8763356804847717,
				-0.8634992837905884,
				-0.8758782148361206
			],
			"type":"VEC3"
		},
		{
			"bufferView":1,
			"componentType":5126,
			"count":26576,
			"type":"VEC3"
		},
		{
			"bufferView":2,
			"componentType":5126,
			"count":26576,
			"type":"VEC2"
		},
		{
			"bufferView":3,
			"componentType":5123,
			"count":103014,
			"type":"SCALAR"
		},
		{
			"bufferView":4,
			"componentType":5126,
			"count":6587,
			"max":[
				0.6551179885864258,
				0.6615126729011536,
				0.66178959608078
			],
			"min":[
				-0.6606217622756958,
				-0.6490849852561951,
				-0.6526646018028259
			],
			"type":"VEC3"
		},
		{
			"bufferView":5,
			"componentType":5126,
			"count":6587,
			"type":"VEC3"
		},
		{
			"bufferView":6,
			"componentType":5126,
			"count":6587,
			"type":"VEC2"
		},
		{
			"bufferView":7,
			"componentType":5123,
			"count":39042,
			"type":"SCALAR"
		}
	],
	"bufferViews":[
		{
			"buffer":0,
			"byteLength":318912,
			"byteOffset":0,
			"target":34962
		},
		{
			"buffer":0,
			"byteLength":318912,
			"byteOffset":318912,
			"target":34962
		},
		{
			"buffer":0,
			"byteLength":212608,
			"byteOffset":637824,
			"target":34962
		},
		{
			"buffer":0,
			"byteLength":206028,
			"byteOffset":850432,
			"target":34963
		},
		{
			"buffer":0,
			"byteLength":79044,
			"byteOffset":1056460,
			"target":34962
		},
		{
			"buffer":0,
			"byteLength":79044,
			"byteOffset":1135504,
			"target":34962
		},
		{
			"buffer":0,
			"byteLength":52696,
			"byteOffset":1214548,
			"target":34962
		},
		{
			"buffer":0,
			"byteLength":78084,
			"byteOffset":1267244,
			"target":34963
		}
	],
	"samplers":[
		{
			"magFilter":9729,
			"minFilter":9987
		}
	],
	"buffers":[
		{
			"byteLength":1345328,
			"uri":"planet2.bin"
		}
	]
}
